<?xml version="1.0" encoding="UTF-8" standalone="no"?>
<!DOCTYPE svg PUBLIC "-//W3C//DTD SVG 1.1//EN"
 "http://www.w3.org/Graphics/SVG/1.1/DTD/svg11.dtd">
<!-- Generated by graphviz version 2.42.3 ()
 -->
<!-- Title: G Pages: 1 -->
<svg width="253pt" height="52pt"
 viewBox="0.00 0.00 252.80 51.80" xmlns="http://www.w3.org/2000/svg" xmlns:xlink="http://www.w3.org/1999/xlink">
<g id="graph0" class="graph" transform="scale(1 1) rotate(0) translate(4 47.8)">
<title>G</title>
<!-- 1 -->
<g id="node1" class="node">
<title>1</title>
<ellipse fill="black" stroke="black" cx="5.4" cy="-38.4" rx="5.4" ry="5.4"/>
</g>
<!-- 2 -->
<g id="node2" class="node">
<title>2</title>
<ellipse fill="black" stroke="black" cx="52.2" cy="-38.4" rx="5.4" ry="5.4"/>
</g>
<!-- 1&#45;&gt;2 -->
<g id="edge1" class="edge">
<title>1&#45;&gt;2</title>
<path fill="none" stroke="green" d="M10.86,-38.4C19.45,-38.4 38.19,-38.4 46.76,-38.4"/>
</g>
<!-- 3 -->
<g id="node3" class="node">
<title>3</title>
<ellipse fill="black" stroke="black" cx="145.8" cy="-38.4" rx="5.4" ry="5.4"/>
</g>
<!-- 2&#45;&gt;3 -->
<g id="edge2" class="edge">
<title>2&#45;&gt;3</title>
<path fill="none" stroke="green" d="M57.62,-38.4C73.06,-38.4 124.51,-38.4 140.21,-38.4"/>
</g>
<!-- 6 -->
<g id="node6" class="node">
<title>6</title>
<ellipse fill="black" stroke="black" cx="99" cy="-5.4" rx="5.4" ry="5.4"/>
</g>
<!-- 2&#45;&gt;6 -->
<g id="edge5" class="edge">
<title>2&#45;&gt;6</title>
<path fill="none" stroke="red" d="M57.02,-35.59C65.48,-29.35 85.74,-14.43 94.19,-8.21"/>
</g>
<!-- 4 -->
<g id="node4" class="node">
<title>4</title>
<ellipse fill="black" stroke="black" cx="192.6" cy="-38.4" rx="5.4" ry="5.4"/>
</g>
<!-- 3&#45;&gt;4 -->
<g id="edge3" class="edge">
<title>3&#45;&gt;4</title>
<path fill="none" stroke="green" d="M151.26,-38.4C159.85,-38.4 178.59,-38.4 187.16,-38.4"/>
</g>
<!-- 5 -->
<g id="node5" class="node">
<title>5</title>
<ellipse fill="black" stroke="black" cx="239.4" cy="-38.4" rx="5.4" ry="5.4"/>
</g>
<!-- 4&#45;&gt;5 -->
<g id="edge4" class="edge">
<title>4&#45;&gt;5</title>
<path fill="none" stroke="green" d="M198.06,-38.4C206.65,-38.4 225.39,-38.4 233.96,-38.4"/>
</g>
<!-- 7 -->
<g id="node7" class="node">
<title>7</title>
<ellipse fill="black" stroke="black" cx="145.8" cy="-5.4" rx="5.4" ry="5.4"/>
</g>
<!-- 6&#45;&gt;7 -->
<g id="edge6" class="edge">
<title>6&#45;&gt;7</title>
<path fill="none" stroke="red" d="M104.46,-5.4C113.05,-5.4 131.79,-5.4 140.36,-5.4"/>
</g>
<!-- 7&#45;&gt;4 -->
<g id="edge7" class="edge">
<title>7&#45;&gt;4</title>
<path fill="none" stroke="red" d="M150.62,-8.21C159.08,-14.45 179.34,-29.37 187.79,-35.59"/>
</g>
</g>
</svg>
